<svg width="60" height="21" viewBox="0 0 60 21" fill="none" xmlns="http://www.w3.org/2000/svg">
<path d="M14.4067 13.056H12.1667V16H11.0147V13.056H4.69469V12.224L10.6307 4.8H11.9107L6.18269 12.032H11.0467V9.44H12.1667V12.032H14.4067V13.056ZM22.7563 4.8V16H21.6043V5.824H18.9643V4.8H22.7563ZM28.9216 4.704C30.4042 4.704 31.5402 5.19467 32.3296 6.176C33.1189 7.14667 33.5136 8.52267 33.5136 10.304C33.5136 11.552 33.3002 12.608 32.8736 13.472C32.4469 14.336 31.8496 14.992 31.0816 15.44C30.3136 15.8773 29.4176 16.096 28.3936 16.096C27.2842 16.096 26.3989 15.8933 25.7376 15.488L26.2016 14.56C26.7349 14.912 27.4602 15.088 28.3776 15.088C29.6149 15.088 30.5856 14.6987 31.2896 13.92C31.9936 13.1307 32.3456 11.9893 32.3456 10.496C32.3456 10.2187 32.3296 9.91467 32.2976 9.584C32.0202 10.192 31.5776 10.6667 30.9696 11.008C30.3616 11.3387 29.6629 11.504 28.8736 11.504C28.1376 11.504 27.4816 11.3653 26.9056 11.088C26.3402 10.8107 25.8976 10.4213 25.5776 9.92C25.2576 9.408 25.0976 8.816 25.0976 8.144C25.0976 7.46133 25.2629 6.85867 25.5936 6.336C25.9242 5.81333 26.3776 5.41333 26.9536 5.136C27.5402 4.848 28.1962 4.704 28.9216 4.704ZM29.0496 10.528C29.6149 10.528 30.1109 10.4213 30.5376 10.208C30.9749 9.99467 31.3162 9.70133 31.5616 9.328C31.8069 8.95467 31.9296 8.53867 31.9296 8.08C31.9296 7.65333 31.8122 7.25867 31.5776 6.896C31.3536 6.53333 31.0176 6.24 30.5696 6.016C30.1216 5.792 29.5882 5.68 28.9696 5.68C28.1589 5.68 27.4976 5.904 26.9856 6.352C26.4842 6.78933 26.2336 7.376 26.2336 8.112C26.2336 8.848 26.4842 9.43467 26.9856 9.872C27.4976 10.3093 28.1856 10.528 29.0496 10.528ZM39.6476 16.096C38.7836 16.096 38.0102 15.8667 37.3276 15.408C36.6556 14.9493 36.1276 14.2933 35.7436 13.44C35.3702 12.576 35.1836 11.5627 35.1836 10.4C35.1836 9.23733 35.3702 8.22933 35.7436 7.376C36.1276 6.512 36.6556 5.85067 37.3276 5.392C38.0102 4.93333 38.7836 4.704 39.6476 4.704C40.5116 4.704 41.2796 4.93333 41.9516 5.392C42.6342 5.85067 43.1676 6.512 43.5516 7.376C43.9356 8.22933 44.1276 9.23733 44.1276 10.4C44.1276 11.5627 43.9356 12.576 43.5516 13.44C43.1676 14.2933 42.6342 14.9493 41.9516 15.408C41.2796 15.8667 40.5116 16.096 39.6476 16.096ZM39.6476 15.04C40.2982 15.04 40.8689 14.8587 41.3596 14.496C41.8609 14.1333 42.2502 13.6053 42.5276 12.912C42.8049 12.2187 42.9436 11.3813 42.9436 10.4C42.9436 9.41867 42.8049 8.58133 42.5276 7.888C42.2502 7.19467 41.8609 6.66667 41.3596 6.304C40.8689 5.94133 40.2982 5.76 39.6476 5.76C38.9969 5.76 38.4209 5.94133 37.9196 6.304C37.4289 6.66667 37.0449 7.19467 36.7676 7.888C36.4902 8.58133 36.3516 9.41867 36.3516 10.4C36.3516 11.3813 36.4902 12.2187 36.7676 12.912C37.0449 13.6053 37.4289 14.1333 37.9196 14.496C38.4209 14.8587 38.9969 15.04 39.6476 15.04Z" fill="#929292"/>
<path d="M51.1752 11.9929C51.9851 11.9929 52.7618 11.6712 53.3344 11.0985C53.9071 10.5259 54.2288 9.74917 54.2288 8.93931C54.2288 8.12946 53.9071 7.35277 53.3344 6.78011C52.7618 6.20746 51.9851 5.88574 51.1752 5.88574H48.1217C48.0137 5.88574 47.9101 5.92864 47.8338 6.00499C47.7574 6.08135 47.7145 6.1849 47.7145 6.29289V11.1786H46.4931C46.3851 11.1786 46.2815 11.2215 46.2052 11.2978C46.1288 11.3742 46.0859 11.4778 46.0859 11.5857C46.0859 11.6937 46.1288 11.7973 46.2052 11.8736C46.2815 11.95 46.3851 11.9929 46.4931 11.9929H47.7145V12.8072H46.4931C46.3851 12.8072 46.2815 12.8501 46.2052 12.9264C46.1288 13.0028 46.0859 13.1063 46.0859 13.2143C46.0859 13.3223 46.1288 13.4259 46.2052 13.5022C46.2815 13.5786 46.3851 13.6215 46.4931 13.6215H47.7145V15.25C47.7145 15.358 47.7574 15.4616 47.8338 15.5379C47.9101 15.6143 48.0137 15.6572 48.1217 15.6572C48.2296 15.6572 48.3332 15.6143 48.4095 15.5379C48.4859 15.4616 48.5288 15.358 48.5288 15.25V13.6215H50.9717C51.0796 13.6215 51.1832 13.5786 51.2595 13.5022C51.3359 13.4259 51.3788 13.3223 51.3788 13.2143C51.3788 13.1063 51.3359 13.0028 51.2595 12.9264C51.1832 12.8501 51.0796 12.8072 50.9717 12.8072H48.5288V11.9929H51.1752ZM48.5288 6.70003H51.1752C51.7691 6.70003 52.3387 6.93595 52.7586 7.3559C53.1786 7.77585 53.4145 8.34542 53.4145 8.93931C53.4145 9.53321 53.1786 10.1028 52.7586 10.5227C52.3387 10.9427 51.7691 11.1786 51.1752 11.1786H48.5288V6.70003Z" fill="#929292"/>
<line y1="12.5" x2="60" y2="12.5" stroke="#929292"/>
</svg>
