<svg width="31" height="31" viewBox="0 0 31 31" fill="none" xmlns="http://www.w3.org/2000/svg">
<path fill-rule="evenodd" clip-rule="evenodd" d="M15.5066 0.849609C11.5359 0.849609 11.0376 0.866971 9.47812 0.937941C7.92166 1.00921 6.85925 1.25563 5.92964 1.61718C4.96804 1.99061 4.15235 2.49013 3.3397 3.30309C2.52645 4.11573 2.02692 4.93143 1.65227 5.89271C1.28981 6.82263 1.04309 7.88534 0.973036 9.44119C0.903285 11.0007 0.88501 11.4993 0.88501 15.47C0.88501 19.4406 0.902676 19.9374 0.973341 21.4969C1.04492 23.0533 1.29133 24.1157 1.65258 25.0454C2.02631 26.007 2.52584 26.8226 3.33879 27.6353C4.15113 28.4485 4.96683 28.9493 5.92781 29.3227C6.85803 29.6843 7.92074 29.9307 9.4769 30.002C11.0364 30.0729 11.5344 30.0903 15.5047 30.0903C19.4757 30.0903 19.9725 30.0729 21.532 30.002C23.0884 29.9307 24.1521 29.6843 25.0823 29.3227C26.0436 28.9493 26.858 28.4485 27.6704 27.6353C28.4836 26.8226 28.9832 26.007 29.3578 25.0457C29.7172 24.1157 29.964 23.053 30.0371 21.4972C30.1071 19.9377 30.1254 19.4406 30.1254 15.47C30.1254 11.4993 30.1071 11.001 30.0371 9.4415C29.964 7.88504 29.7172 6.82263 29.3578 5.89302C28.9832 4.93143 28.4836 4.11573 27.6704 3.30309C26.8571 2.48983 26.0439 1.9903 25.0814 1.61718C24.1493 1.25563 23.0863 1.00921 21.5298 0.937941C19.9703 0.866971 19.4739 0.849609 15.502 0.849609H15.5066ZM14.1949 3.48419C14.4495 3.48379 14.7235 3.48392 15.0191 3.48405L15.5064 3.48419C19.4101 3.48419 19.8727 3.4982 21.4143 3.56826C22.8397 3.63344 23.6134 3.87163 24.1288 4.07175C24.811 4.33674 25.2975 4.65351 25.8089 5.16523C26.3206 5.67694 26.6374 6.16428 26.903 6.84656C27.1031 7.36132 27.3416 8.13498 27.4065 9.56046C27.4765 11.1017 27.4917 11.5647 27.4917 15.4665C27.4917 19.3683 27.4765 19.8313 27.4065 21.3725C27.3413 22.798 27.1031 23.5716 26.903 24.0864C26.638 24.7687 26.3206 25.2545 25.8089 25.7659C25.2972 26.2776 24.8114 26.5944 24.1288 26.8594C23.614 27.0604 22.8397 27.298 21.4143 27.3632C19.873 27.4332 19.4101 27.4484 15.5064 27.4484C11.6025 27.4484 11.1398 27.4332 9.59859 27.3632C8.1731 27.2974 7.39945 27.0592 6.88377 26.8591C6.20149 26.5941 5.71415 26.2773 5.20244 25.7656C4.69072 25.2539 4.37395 24.7677 4.10835 24.0852C3.90823 23.5704 3.66974 22.7967 3.60486 21.3713C3.5348 19.83 3.52079 19.3671 3.52079 15.4628C3.52079 11.5586 3.5348 11.098 3.60486 9.55681C3.67004 8.13133 3.90823 7.35767 4.10835 6.8423C4.37334 6.16002 4.69072 5.67267 5.20244 5.16096C5.71415 4.64925 6.20149 4.33248 6.88377 4.06687C7.39914 3.86584 8.1731 3.62826 9.59859 3.56278C10.9473 3.50186 11.47 3.48358 14.1949 3.48054V3.48419ZM21.5565 7.6657C21.5565 6.6968 22.3423 5.91187 23.3109 5.91187V5.91126C24.2795 5.91126 25.0654 6.6971 25.0654 7.6657C25.0654 8.63429 24.2795 9.42014 23.3109 9.42014C22.3423 9.42014 21.5565 8.63429 21.5565 7.6657ZM15.5062 7.96171C11.36 7.96187 7.99838 11.3236 7.99838 15.4699C7.99838 19.6162 11.3601 22.9765 15.5065 22.9765C19.6529 22.9765 23.0135 19.6162 23.0135 15.4699C23.0135 11.3235 19.6526 7.96171 15.5062 7.96171ZM20.3799 15.4697C20.3799 12.778 18.1978 10.5962 15.5064 10.5962C12.8148 10.5962 10.633 12.778 10.633 15.4697C10.633 18.1611 12.8148 20.3431 15.5064 20.3431C18.1978 20.3431 20.3799 18.1611 20.3799 15.4697Z" fill="white"/>
</svg>
