<svg width="30" height="30" viewBox="0 0 30 30" fill="none" xmlns="http://www.w3.org/2000/svg">
<circle cx="15.3062" cy="14.6939" r="14.6939" fill="#007ABE"/>
<path d="M7.98869 6.51893C8.09075 6.2145 8.41629 6.05085 8.7172 6.15291L9.34541 6.36583C10.0704 6.64562 10.5948 7.05563 10.9608 8.21702L23.3683 9.71804C23.6798 9.75499 23.9033 10.0383 23.8716 10.355L23.2241 16.7673C23.1941 17.063 22.946 17.29 22.6522 17.29L13.0883 17.297L12.4477 18.6784C12.3527 18.9124 12.3721 19.0285 12.3809 19.0444C12.3914 19.0585 12.4864 19.1165 12.7258 19.1165H22.6785C22.8492 19.1165 23.0146 19.1939 23.1237 19.3294L23.7467 20.0949C23.9473 20.343 23.9138 20.709 23.6675 20.9132C23.5602 21.0011 23.4299 21.0451 23.3032 21.0451C23.1361 21.0451 22.9707 20.973 22.858 20.8322L22.4111 20.2797H21.2303V20.5366C21.8198 20.7161 22.2545 21.2651 22.2545 21.9179C22.2545 22.7168 21.6104 23.3662 20.8203 23.3662C20.0285 23.3662 19.3862 22.7168 19.3862 21.9179C19.3862 21.2633 19.8208 20.7161 20.4103 20.5366V20.2797H14.3763V20.5366C14.9658 20.7161 15.4005 21.2651 15.4005 21.9179C15.4005 22.7168 14.7564 23.3662 13.9663 23.3662C13.1745 23.3662 12.5322 22.7168 12.5322 21.9179C12.5322 21.2633 12.9651 20.7161 13.5546 20.5366V20.2797H12.7258C11.9744 20.2797 11.6048 19.9612 11.4271 19.6955C11.2476 19.4262 11.0945 18.9564 11.3937 18.2138L12.124 16.6389L9.88211 8.62703C9.62872 7.77358 9.3542 7.61345 8.95828 7.46036L8.35118 7.25448C8.05028 7.15241 7.88839 6.82335 7.98869 6.51893ZM20.2027 21.9179C20.2027 22.2593 20.4772 22.5356 20.815 22.5356C21.1529 22.5356 21.4274 22.2593 21.4274 21.9179C21.4274 21.7367 21.3482 21.5748 21.225 21.4622V21.5766C21.225 21.8053 21.0403 21.9936 20.815 21.9936C20.588 21.9936 20.4033 21.8071 20.4033 21.5766V21.4604C20.2819 21.5748 20.2027 21.7367 20.2027 21.9179ZM13.354 21.9179C13.354 22.2593 13.6285 22.5356 13.9663 22.5356C14.3042 22.5356 14.577 22.2593 14.577 21.9179C14.577 21.7367 14.4995 21.5748 14.3763 21.4622V21.5766C14.3763 21.8053 14.1916 21.9936 13.9663 21.9936C13.7393 21.9936 13.5546 21.8071 13.5546 21.5766V21.4622C13.4332 21.5748 13.354 21.7367 13.354 21.9179ZM13.178 16.1339L14.9148 16.1321L14.7353 15.122L12.8824 15.0763L13.178 16.1339ZM17.1672 12.8362L17.0792 11.8033L14.7758 11.5939L14.9729 12.6989L17.1672 12.8362ZM15.0925 13.3729L15.2879 14.4709L17.3115 14.5202L17.2253 13.5049L15.0925 13.3729ZM17.0212 11.1293L16.9349 10.1104L14.4591 9.8113L14.6544 10.9164L17.0212 11.1293ZM17.6881 11.1891L20.0584 11.4021L20.0777 10.4905L17.6019 10.1914L17.6881 11.1891ZM17.7444 11.8631L17.8306 12.8767L20.0249 13.0122L20.0443 12.069L17.7444 11.8631ZM20.6813 13.0526L22.4304 13.1617L22.5184 12.2942L20.7007 12.1306L20.6813 13.0526ZM20.6672 13.7178L20.6496 14.6029L22.2809 14.6434L22.3636 13.8234L20.6672 13.7178ZM20.0109 13.6773L17.8887 13.5454L17.9731 14.5361L19.9915 14.5853L20.0109 13.6773ZM18.0295 15.203L18.1086 16.1303L19.9598 16.1286L19.9792 15.2505L18.0295 15.203ZM17.3678 15.1871L15.4075 15.1379L15.5853 16.1321L17.4505 16.1303L17.3678 15.1871ZM12.6941 14.4076L14.6157 14.4551L14.4151 13.3324L12.358 13.2057L12.6941 14.4076ZM12.1679 12.5265L14.2954 12.6585L14.0948 11.534L11.8318 11.3299L12.1679 12.5265ZM11.6418 10.6436L13.9751 10.8548L13.7745 9.72859L11.3022 9.42945L11.6418 10.6436ZM20.7341 10.5715L20.7165 11.4636L22.587 11.6326L22.6715 10.8055L20.7341 10.5715ZM22.214 15.305L20.6356 15.2663L20.618 16.1268L22.1313 16.1251L22.214 15.305Z" fill="white"/>
</svg>
