<svg width="25" height="29" viewBox="0 0 25 29" fill="none" xmlns="http://www.w3.org/2000/svg">
<path d="M0.196277 0.860901C0.350587 0.369204 0.842784 0.104882 1.29773 0.269728L2.24754 0.613632C3.34367 1.06554 4.13651 1.72777 4.68989 3.6036L23.4492 6.02798C23.9201 6.08767 24.258 6.54526 24.2101 7.05685L23.2311 17.4138C23.1858 17.8912 22.8107 18.2579 22.3664 18.2579L7.90646 18.2692L6.93803 20.5004C6.79437 20.8784 6.82363 21.066 6.83693 21.0915C6.8529 21.1143 6.99657 21.2081 7.3584 21.2081H22.4063C22.6644 21.2081 22.9145 21.3331 23.0794 21.552L24.0212 22.7883C24.3245 23.1891 24.274 23.7802 23.9015 24.1099C23.7392 24.252 23.5423 24.3231 23.3508 24.3231C23.098 24.3231 22.8479 24.2066 22.6777 23.9792L22.0019 23.0867H20.2167V23.5017C21.108 23.7916 21.7651 24.6784 21.7651 25.7328C21.7651 27.0232 20.7914 28.0719 19.5968 28.0719C18.3996 28.0719 17.4285 27.0232 17.4285 25.7328C17.4285 24.6755 18.0856 23.7916 18.9769 23.5017V23.0867H9.85396V23.5017C10.7452 23.7916 11.4024 24.6784 11.4024 25.7328C11.4024 27.0232 10.4286 28.0719 9.23406 28.0719C8.03683 28.0719 7.06574 27.0232 7.06574 25.7328C7.06574 24.6755 7.72023 23.7916 8.6115 23.5017V23.0867H7.3584C6.22235 23.0867 5.66364 22.5723 5.39493 22.1431C5.12356 21.7083 4.89209 20.9494 5.34438 19.75L6.4485 17.2063L3.059 4.26583C2.67588 2.88738 2.26084 2.62874 1.66222 2.38147L0.744344 2.04893C0.289395 1.88409 0.0446277 1.3526 0.196277 0.860901ZM18.6629 25.7328C18.6629 26.2842 19.078 26.7304 19.5888 26.7304C20.0996 26.7304 20.5147 26.2842 20.5147 25.7328C20.5147 25.4401 20.3949 25.1786 20.2087 24.9967V25.1814C20.2087 25.5509 19.9293 25.855 19.5888 25.855C19.2456 25.855 18.9662 25.5538 18.9662 25.1814V24.9938C18.7827 25.1786 18.6629 25.4401 18.6629 25.7328ZM8.3082 25.7328C8.3082 26.2842 8.72324 26.7304 9.23406 26.7304C9.74488 26.7304 10.1573 26.2842 10.1573 25.7328C10.1573 25.4401 10.0402 25.1786 9.85396 24.9967V25.1814C9.85396 25.5509 9.57461 25.855 9.23406 25.855C8.89085 25.855 8.6115 25.5538 8.6115 25.1814V24.9967C8.42793 25.1786 8.3082 25.4401 8.3082 25.7328ZM8.04215 16.3906L10.6681 16.3877L10.3967 14.7563L7.59518 14.6824L8.04215 16.3906ZM14.0735 11.0643L13.9405 9.39596L10.4579 9.05775L10.7559 10.8426L14.0735 11.0643ZM10.9368 11.9312L11.2321 13.7047L14.2917 13.7843L14.1613 12.1444L10.9368 11.9312ZM13.8527 8.30741L13.7224 6.66179L9.97901 6.17862L10.2743 7.96351L13.8527 8.30741ZM14.8611 8.40404L18.4448 8.74795L18.474 7.2757L14.7307 6.79253L14.8611 8.40404ZM14.9462 9.4926L15.0766 11.1297L18.3942 11.3485L18.4235 9.82513L14.9462 9.4926ZM19.3866 11.4139L22.0312 11.5901L22.1642 10.1889L19.4159 9.92461L19.3866 11.4139ZM19.3653 12.4883L19.3387 13.9179L21.805 13.9832L21.9301 12.6588L19.3653 12.4883ZM18.3729 12.4229L15.1644 12.2097L15.2921 13.8099L18.3437 13.8895L18.3729 12.4229ZM15.3772 14.8871L15.4969 16.3849L18.2958 16.382L18.3251 14.9638L15.3772 14.8871ZM14.3768 14.8615L11.413 14.7819L11.6817 16.3877L14.5019 16.3849L14.3768 14.8615ZM7.31051 13.6024L10.2158 13.6791L9.91249 11.8658L6.80235 11.6612L7.31051 13.6024ZM6.51501 10.5641L9.73158 10.7773L9.42828 8.96111L6.00685 8.63142L6.51501 10.5641ZM5.71952 7.52297L9.24736 7.86403L8.94407 6.04504L5.20604 5.56187L5.71952 7.52297ZM19.4664 7.40644L19.4398 8.84742L22.2679 9.12027L22.3957 7.78445L19.4664 7.40644ZM21.7039 15.0519L19.3174 14.9894L19.2908 16.3792L21.5789 16.3764L21.7039 15.0519Z" fill="white"/>
</svg>
