<svg width="40" height="40" viewBox="0 0 40 40" fill="none" xmlns="http://www.w3.org/2000/svg">
<circle cx="20" cy="20" r="20" fill="#007ABE"/>
<path d="M10.0404 8.87284C10.1793 8.45848 10.6224 8.23573 11.032 8.37465L11.8871 8.66446C12.8739 9.04529 13.5876 9.60335 14.0858 11.1841L30.9739 13.2272C31.3978 13.2775 31.702 13.6631 31.6589 14.0942L30.7775 22.8221C30.7367 23.2244 30.399 23.5334 29.999 23.5334L16.9815 23.543L16.1097 25.4232C15.9803 25.7417 16.0067 25.8998 16.0187 25.9214C16.033 25.9405 16.1624 26.0196 16.4881 26.0196H30.035C30.2673 26.0196 30.4924 26.1249 30.6409 26.3094L31.4888 27.3513C31.7619 27.689 31.7163 28.1872 31.381 28.465C31.2349 28.5847 31.0577 28.6446 30.8852 28.6446C30.6577 28.6446 30.4326 28.5464 30.2793 28.3548L29.6709 27.6027H28.0638V27.9524C28.8661 28.1967 29.4577 28.944 29.4577 29.8326C29.4577 30.92 28.5811 31.8038 27.5057 31.8038C26.4279 31.8038 25.5537 30.92 25.5537 29.8326C25.5537 28.9416 26.1453 28.1967 26.9476 27.9524V27.6027H18.7347V27.9524C19.5371 28.1967 20.1287 28.944 20.1287 29.8326C20.1287 30.92 19.2521 31.8038 18.1767 31.8038C17.0989 31.8038 16.2247 30.92 16.2247 29.8326C16.2247 28.9416 16.8139 28.1967 17.6162 27.9524V27.6027H16.4881C15.4654 27.6027 14.9624 27.1692 14.7205 26.8076C14.4762 26.4411 14.2678 25.8016 14.675 24.7909L15.669 22.6472L12.6176 11.7422C12.2727 10.5806 11.899 10.3626 11.3601 10.1542L10.5338 9.874C10.1243 9.73508 9.90391 9.28719 10.0404 8.87284ZM26.665 29.8326C26.665 30.2973 27.0387 30.6733 27.4985 30.6733C27.9584 30.6733 28.332 30.2973 28.332 29.8326C28.332 29.5859 28.2242 29.3656 28.0566 29.2123V29.368C28.0566 29.6793 27.8051 29.9356 27.4985 29.9356C27.1896 29.9356 26.9381 29.6817 26.9381 29.368V29.2099C26.7728 29.3656 26.665 29.5859 26.665 29.8326ZM17.3432 29.8326C17.3432 30.2973 17.7168 30.6733 18.1767 30.6733C18.6365 30.6733 19.0078 30.2973 19.0078 29.8326C19.0078 29.5859 18.9024 29.3656 18.7347 29.2123V29.368C18.7347 29.6793 18.4833 29.9356 18.1767 29.9356C17.8677 29.9356 17.6162 29.6817 17.6162 29.368V29.2123C17.451 29.3656 17.3432 29.5859 17.3432 29.8326ZM17.1037 21.9598L19.4677 21.9574L19.2234 20.5826L16.7013 20.5203L17.1037 21.9598ZM22.5334 17.4713L22.4137 16.0654L19.2784 15.7804L19.5467 17.2845L22.5334 17.4713ZM19.7096 18.2019L19.9754 19.6964L22.7298 19.7635L22.6125 18.3815L19.7096 18.2019ZM22.3346 15.1481L22.2173 13.7613L18.8473 13.3541L19.1132 14.8583L22.3346 15.1481ZM23.2424 15.2295L26.4686 15.5193L26.495 14.2786L23.125 13.8715L23.2424 15.2295ZM23.319 16.1468L23.4364 17.5264L26.4231 17.7109L26.4495 16.4271L23.319 16.1468ZM27.3165 17.7659L29.6972 17.9144L29.817 16.7336L27.3428 16.5109L27.3165 17.7659ZM27.2973 18.6713L27.2734 19.8761L29.4937 19.9311L29.6062 18.815L27.2973 18.6713ZM26.4039 18.6162L23.5154 18.4366L23.6304 19.785L26.3776 19.8521L26.4039 18.6162ZM23.707 20.6928L23.8148 21.955L26.3345 21.9526L26.3608 20.7575L23.707 20.6928ZM22.8065 20.6712L20.1383 20.6042L20.3802 21.9574L22.919 21.955L22.8065 20.6712ZM16.445 19.6102L19.0605 19.6749L18.7874 18.1468L15.9875 17.9743L16.445 19.6102ZM15.7289 17.0498L18.6246 17.2294L18.3515 15.699L15.2714 15.4211L15.7289 17.0498ZM15.0127 14.487L18.1887 14.7744L17.9156 13.2416L14.5505 12.8344L15.0127 14.487ZM27.3883 14.3888L27.3644 15.6031L29.9104 15.8331L30.0254 14.7074L27.3883 14.3888ZM29.4026 20.8317L27.2542 20.779L27.2303 21.9502L29.2901 21.9478L29.4026 20.8317Z" fill="white"/>
</svg>
