<svg width="19" height="20" viewBox="0 0 19 20" fill="none" xmlns="http://www.w3.org/2000/svg">
<circle cx="9.73228" cy="10.1973" r="9.26842" fill="#007ABE"/>
<path d="M5.1159 5.04073C5.18028 4.8487 5.38562 4.74548 5.57542 4.80986L5.97168 4.94416C6.42898 5.12064 6.75974 5.37926 6.99061 6.11183L14.8169 7.05862C15.0134 7.08193 15.1543 7.26063 15.1343 7.46042L14.7259 11.5051C14.707 11.6916 14.5505 11.8347 14.3651 11.8347L8.33255 11.8392L7.92852 12.7105C7.86859 12.8581 7.8808 12.9314 7.88635 12.9414C7.89301 12.9502 7.95294 12.9869 8.1039 12.9869H14.3818C14.4895 12.9869 14.5938 13.0357 14.6626 13.1212L15.0555 13.604C15.1821 13.7605 15.161 13.9914 15.0056 14.1201C14.9379 14.1756 14.8557 14.2034 14.7758 14.2034C14.6704 14.2034 14.566 14.1579 14.495 14.0691L14.2131 13.7206H13.4683V13.8826C13.8401 13.9958 14.1143 14.3421 14.1143 14.7539C14.1143 15.2578 13.708 15.6674 13.2097 15.6674C12.7102 15.6674 12.3051 15.2578 12.3051 14.7539C12.3051 14.341 12.5792 13.9958 12.9511 13.8826V13.7206H9.14503V13.8826C9.51687 13.9958 9.79102 14.3421 9.79102 14.7539C9.79102 15.2578 9.38478 15.6674 8.88641 15.6674C8.38693 15.6674 7.9818 15.2578 7.9818 14.7539C7.9818 14.341 8.25485 13.9958 8.62668 13.8826V13.7206H8.1039C7.62995 13.7206 7.39686 13.5197 7.28475 13.352C7.17154 13.1822 7.07497 12.8859 7.26366 12.4175L7.72429 11.4241L6.31021 6.37045C6.15038 5.83212 5.97723 5.73112 5.72749 5.63455L5.34455 5.50469C5.15475 5.44031 5.05264 5.23275 5.1159 5.04073ZM12.8201 14.7539C12.8201 14.9693 12.9932 15.1435 13.2063 15.1435C13.4195 15.1435 13.5926 14.9693 13.5926 14.7539C13.5926 14.6396 13.5427 14.5375 13.465 14.4664V14.5386C13.465 14.6829 13.3484 14.8016 13.2063 14.8016C13.0632 14.8016 12.9466 14.684 12.9466 14.5386V14.4653C12.87 14.5375 12.8201 14.6396 12.8201 14.7539ZM8.50015 14.7539C8.50015 14.9693 8.6733 15.1435 8.88641 15.1435C9.09952 15.1435 9.27157 14.9693 9.27157 14.7539C9.27157 14.6396 9.22273 14.5375 9.14503 14.4664V14.5386C9.14503 14.6829 9.02849 14.8016 8.88641 14.8016C8.74323 14.8016 8.62668 14.684 8.62668 14.5386V14.4664C8.5501 14.5375 8.50015 14.6396 8.50015 14.7539ZM8.38915 11.1055L9.48468 11.1044L9.37146 10.4673L8.20268 10.4384L8.38915 11.1055ZM10.9054 9.02545L10.8499 8.37391L9.39699 8.24183L9.52131 8.93888L10.9054 9.02545ZM9.59678 9.36399L9.71999 10.0566L10.9964 10.0877L10.942 9.44724L9.59678 9.36399ZM10.8133 7.9488L10.7589 7.30614L9.1972 7.11745L9.3204 7.8145L10.8133 7.9488ZM11.234 7.98654L12.7291 8.12084L12.7413 7.54589L11.1796 7.3572L11.234 7.98654ZM11.2695 8.41165L11.3239 9.05098L12.708 9.13645L12.7202 8.54152L11.2695 8.41165ZM13.122 9.16198L14.2253 9.2308L14.2808 8.68359L13.1342 8.58036L13.122 9.16198ZM13.1131 9.58154L13.102 10.1398L14.1309 10.1654L14.1831 9.64814L13.1131 9.58154ZM12.6991 9.55601L11.3605 9.47277L11.4138 10.0977L12.6869 10.1287L12.6991 9.55601ZM11.4493 10.5183L11.4992 11.1033L12.6669 11.1022L12.6791 10.5483L11.4493 10.5183ZM11.032 10.5084L9.79546 10.4773L9.90757 11.1044L11.0841 11.1033L11.032 10.5084ZM8.08392 10.0166L9.29599 10.0466L9.16945 9.33846L7.87192 9.25855L8.08392 10.0166ZM7.75204 8.8301L9.09397 8.91335L8.96744 8.20409L7.54004 8.07534L7.75204 8.8301ZM7.42017 7.64245L8.89196 7.77565L8.76543 7.06528L7.20594 6.87659L7.42017 7.64245ZM13.1553 7.59695L13.1442 8.15969L14.3241 8.26625L14.3773 7.74457L13.1553 7.59695ZM14.0888 10.5827L13.0931 10.5583L13.082 11.1011L14.0366 11.1L14.0888 10.5827Z" fill="white"/>
</svg>
