<svg width="9" height="11" viewBox="0 0 9 11" fill="none" xmlns="http://www.w3.org/2000/svg">
<path d="M5.17522 6.99289C5.98508 6.99289 6.76177 6.67117 7.33442 6.09851C7.90708 5.52586 8.2288 4.74917 8.2288 3.93931C8.2288 3.12946 7.90708 2.35277 7.33442 1.78011C6.76177 1.20746 5.98508 0.885742 5.17522 0.885742H2.12165C2.01367 0.885742 1.91011 0.928638 1.83376 1.00499C1.7574 1.08135 1.71451 1.1849 1.71451 1.29289V6.1786H0.49308C0.385099 6.1786 0.281541 6.22149 0.205187 6.29785C0.128833 6.3742 0.0859375 6.47776 0.0859375 6.58574C0.0859375 6.69372 0.128833 6.79728 0.205187 6.87364C0.281541 6.94999 0.385099 6.99289 0.49308 6.99289H1.71451V7.80717H0.49308C0.385099 7.80717 0.281541 7.85007 0.205187 7.92642C0.128833 8.00277 0.0859375 8.10633 0.0859375 8.21431C0.0859375 8.32229 0.128833 8.42585 0.205187 8.50221C0.281541 8.57856 0.385099 8.62146 0.49308 8.62146H1.71451V10.25C1.71451 10.358 1.7574 10.4616 1.83376 10.5379C1.91011 10.6143 2.01367 10.6572 2.12165 10.6572C2.22963 10.6572 2.33319 10.6143 2.40955 10.5379C2.4859 10.4616 2.52879 10.358 2.52879 10.25V8.62146H4.97165C5.07963 8.62146 5.18319 8.57856 5.25955 8.50221C5.3359 8.42585 5.37879 8.32229 5.37879 8.21431C5.37879 8.10633 5.3359 8.00277 5.25955 7.92642C5.18319 7.85007 5.07963 7.80717 4.97165 7.80717H2.52879V6.99289H5.17522ZM2.52879 1.70003H5.17522C5.76912 1.70003 6.33869 1.93595 6.75864 2.3559C7.17859 2.77585 7.41451 3.34542 7.41451 3.93931C7.41451 4.53321 7.17859 5.10278 6.75864 5.52273C6.33869 5.94268 5.76912 6.1786 5.17522 6.1786H2.52879V1.70003Z" fill="#929292"/>
</svg>
