<svg width="12" height="15" viewBox="0 0 12 15" fill="none" xmlns="http://www.w3.org/2000/svg">
<path d="M7.45904 8.87761C8.55509 8.87761 9.60625 8.44221 10.3813 7.66719C11.1563 6.89216 11.5917 5.84101 11.5917 4.74496C11.5917 3.64891 11.1563 2.59775 10.3813 1.82273C9.60625 1.04771 8.55509 0.612305 7.45904 0.612305H3.32639C3.18025 0.612305 3.0401 0.670359 2.93676 0.773695C2.83342 0.877031 2.77537 1.01719 2.77537 1.16333V7.77557H1.12231C0.97617 7.77557 0.836016 7.83362 0.732679 7.93696C0.629343 8.0403 0.571289 8.18045 0.571289 8.32659C0.571289 8.47273 0.629343 8.61289 0.732679 8.71622C0.836016 8.81956 0.97617 8.87761 1.12231 8.87761H2.77537V9.97965H1.12231C0.97617 9.97965 0.836016 10.0377 0.732679 10.141C0.629343 10.2444 0.571289 10.3845 0.571289 10.5307C0.571289 10.6768 0.629343 10.817 0.732679 10.9203C0.836016 11.0236 0.97617 11.0817 1.12231 11.0817H2.77537V13.2858C2.77537 13.4319 2.83342 13.5721 2.93676 13.6754C3.0401 13.7787 3.18025 13.8368 3.32639 13.8368C3.47253 13.8368 3.61269 13.7787 3.71602 13.6754C3.81936 13.5721 3.87741 13.4319 3.87741 13.2858V11.0817H7.18353C7.32967 11.0817 7.46983 11.0236 7.57316 10.9203C7.6765 10.817 7.73455 10.6768 7.73455 10.5307C7.73455 10.3845 7.6765 10.2444 7.57316 10.141C7.46983 10.0377 7.32967 9.97965 7.18353 9.97965H3.87741V8.87761H7.45904ZM3.87741 1.71435H7.45904C8.26281 1.71435 9.03366 2.03364 9.60201 2.60199C10.1704 3.17034 10.4897 3.94119 10.4897 4.74496C10.4897 5.54873 10.1704 6.31957 9.60201 6.88792C9.03366 7.45627 8.26281 7.77557 7.45904 7.77557H3.87741V1.71435Z" fill="#4B4B4B" stroke="#4B4B4B" stroke-width="0.5"/>
</svg>
