<svg width="7" height="13" viewBox="0 0 7 13" fill="none" xmlns="http://www.w3.org/2000/svg">
<path d="M0.31088 0.342019C0.212332 0.44973 0.134148 0.57767 0.0808034 0.718516C0.0274585 0.859362 0 1.01035 0 1.16283C0 1.31531 0.0274585 1.4663 0.0808034 1.60714C0.134148 1.74799 0.212332 1.87593 0.31088 1.98364L4.43547 6.50101L0.31088 11.0184C0.112115 11.2361 0.000450125 11.5313 0.000450125 11.8392C0.000450125 12.1471 0.112115 12.4423 0.31088 12.66C0.509645 12.8777 0.779227 13 1.06032 13C1.34142 13 1.611 12.8777 1.80977 12.66L6.68912 7.316C6.78767 7.20829 6.86585 7.08035 6.9192 6.93951C6.97254 6.79866 7 6.64768 7 6.49519C7 6.34271 6.97254 6.19172 6.9192 6.05088C6.86585 5.91003 6.78767 5.78209 6.68912 5.67438L1.80977 0.330376C1.40581 -0.112047 0.725466 -0.112047 0.31088 0.342019Z" fill="#007ABE"/>
</svg>
