<svg width="24" height="24" viewBox="0 0 24 24" fill="none" xmlns="http://www.w3.org/2000/svg">
<path d="M4.1282 3.95239C3.53942 3.95239 2.97476 4.18628 2.55843 4.60262C2.1421 5.01895 1.9082 5.58361 1.9082 6.17239V21.7324C1.9082 22.9524 2.9082 23.9524 4.1282 23.9524H19.6882C20.277 23.9524 20.8417 23.7185 21.258 23.3022C21.6743 22.8858 21.9082 22.3212 21.9082 21.7324V6.17239C21.9082 4.95239 20.9082 3.95239 19.6882 3.95239H4.1282ZM10.9082 6.02239V7.95239H12.9082V6.02239C14.8402 6.2658 16.6171 7.20554 17.9058 8.66542C19.1945 10.1253 19.9064 12.0051 19.9082 13.9524C19.9064 15.8997 19.1945 17.7795 17.9058 19.2394C16.6171 20.6992 14.8402 21.639 12.9082 21.8824V19.9524H10.9082V21.8824C8.97618 21.639 7.19928 20.6992 5.9106 19.2394C4.62192 17.7795 3.90997 15.8997 3.9082 13.9524C3.90997 12.0051 4.62192 10.1253 5.9106 8.66542C7.19928 7.20554 8.97618 6.2658 10.9082 6.02239ZM7.4082 12.4524C7.01038 12.4524 6.62885 12.6104 6.34754 12.8917C6.06624 13.173 5.9082 13.5546 5.9082 13.9524C5.9082 14.7824 6.5682 15.4524 7.4082 15.4524C7.80603 15.4524 8.18756 15.2944 8.46886 15.0131C8.75017 14.7317 8.9082 14.3502 8.9082 13.9524C8.9082 13.5546 8.75017 13.173 8.46886 12.8917C8.18756 12.6104 7.80603 12.4524 7.4082 12.4524ZM16.4082 12.4524C16.0104 12.4524 15.6288 12.6104 15.3475 12.8917C15.0662 13.173 14.9082 13.5546 14.9082 13.9524C14.9082 14.3502 15.0662 14.7317 15.3475 15.0131C15.6288 15.2944 16.0104 15.4524 16.4082 15.4524C16.806 15.4524 17.1876 15.2944 17.4689 15.0131C17.7502 14.7317 17.9082 14.3502 17.9082 13.9524C17.9082 13.5546 17.7502 13.173 17.4689 12.8917C17.1876 12.6104 16.806 12.4524 16.4082 12.4524Z" fill="#555555"/>
</svg>
