<svg width="23" height="23" viewBox="0 0 23 23" fill="none" xmlns="http://www.w3.org/2000/svg">
<path d="M13.3463 8.87165L13.3463 8.87162C13.4277 8.6683 13.5692 8.53281 13.6443 8.46078C13.6467 8.45849 13.649 8.45626 13.6513 8.4541C13.7383 8.37061 13.7756 8.3342 13.8078 8.2821L13.8078 8.28204C14.0642 7.86732 14.0448 7.54835 13.9675 7.27008C13.9296 7.13385 13.879 7.01154 13.8217 6.87325C13.8131 6.8524 13.8043 6.83117 13.7954 6.80948L13.792 6.80115C13.7367 6.66674 13.648 6.451 13.6436 6.23297C13.6369 5.90491 13.6419 5.56885 13.6468 5.24137C13.6476 5.18858 13.6484 5.13602 13.6492 5.08375C13.6545 4.70252 13.6572 4.33284 13.6407 3.97426C13.6075 3.25223 13.4977 2.62463 13.2146 2.11065C12.7563 1.27828 11.9273 0.796402 10.9655 0.600429C9.99942 0.403571 8.95484 0.509615 8.17079 0.800892C7.06662 1.21111 6.58783 1.92873 6.3634 2.79909C6.16616 3.564 6.17074 4.41532 6.17548 5.29886C6.17648 5.48316 6.17747 5.66886 6.17665 5.85548L13.3463 8.87165ZM13.3463 8.87165C13.2285 9.16603 13.1443 9.40668 13.0701 9.61886C12.8546 10.2349 12.7231 10.611 12.0952 11.3654L12.4795 11.6852M13.3463 8.87165L12.4795 11.6852M12.4795 11.6852C13.1681 10.8578 13.3293 10.3966 13.5537 9.7541C13.6261 9.54686 13.7051 9.32077 13.8105 9.05746C13.8518 8.95434 13.928 8.8814 14.0117 8.80124C14.0859 8.73017 14.1661 8.65342 14.2331 8.54492L12.4795 11.6852ZM12.4795 11.6852L12.0952 11.3654C11.9392 11.5529 11.8666 11.7956 11.8404 12.0024C11.8132 12.2173 11.8268 12.4644 11.909 12.693M12.4795 11.6852L11.909 12.693M11.909 12.693C11.9743 12.8745 12.0882 13.0248 12.1886 13.1374C12.2921 13.2537 12.4099 13.361 12.512 13.451C12.5503 13.4847 12.5853 13.5151 12.6179 13.5433C12.6182 13.5436 12.6185 13.5439 12.6189 13.5442L6.2469 20.0303C6.24681 20.0304 6.24672 20.0304 6.24663 20.0305C6.15278 20.1255 6.07468 20.2136 6.00495 20.2931C5.99667 20.3025 5.98855 20.3118 5.98055 20.3209C5.9689 20.3342 5.95751 20.3472 5.94628 20.36C4.95831 20.3583 3.97006 20.3591 2.98269 20.3599C2.7516 20.3601 2.52055 20.3603 2.28957 20.3605C2.00003 20.3607 1.76565 20.3649 1.56362 20.3686C1.35881 20.3723 1.18724 20.3754 1.02518 20.373C0.732378 20.3689 0.629271 20.3427 0.595896 20.3283C0.58893 20.3136 0.5752 20.2778 0.562156 20.205C0.528829 20.0188 0.521463 19.7323 0.521634 19.252C0.521763 18.8676 0.514267 18.5488 0.508096 18.2864L0.5069 18.2354C0.500418 17.9579 0.496735 17.761 0.503899 17.6064C0.511077 17.4516 0.528144 17.38 0.542416 17.3435C0.551111 17.3213 0.561343 17.3028 0.600482 17.2713C0.651869 17.23 0.740477 17.1772 0.909525 17.0986C1.03846 17.0386 1.19132 16.9738 1.38389 16.892C1.44225 16.8673 1.50427 16.841 1.57037 16.8128C2.13094 16.5736 2.91575 16.2281 4.00551 15.6439L4.00552 15.6439C4.514 15.3713 5.20738 14.9856 5.86926 14.5582C6.52056 14.1375 7.18305 13.6503 7.59827 13.169L7.59829 13.169C7.70162 13.0492 7.80838 12.9095 7.88155 12.7256C7.95511 12.5406 7.98049 12.3478 7.98145 12.1354L7.98145 12.1354C7.98347 11.6824 7.73404 11.3535 7.53658 11.093C7.51019 11.0582 7.48472 11.0246 7.46091 10.9921C7.23136 10.6789 6.93093 10.2334 6.64429 9.3953C6.62107 9.3274 6.60364 9.26698 6.58584 9.20403C6.58442 9.19901 6.58297 9.19387 6.58149 9.18863C6.56576 9.13286 6.54657 9.06485 6.52365 8.99973C6.46526 8.83381 6.37898 8.67371 6.21354 8.51371M11.909 12.693L6.17665 5.8555C6.17615 5.97028 6.17926 6.05328 6.18193 6.12445L6.1823 6.13424C6.18241 6.13723 6.18253 6.14027 6.18264 6.14336C6.18507 6.20736 6.18829 6.29261 6.17967 6.3775C6.15771 6.59352 6.06479 6.7572 5.96511 6.9318L5.9651 6.93183C5.6704 7.44797 5.79886 8.11262 6.21354 8.51371M6.21354 8.51371C6.21354 8.51371 6.21354 8.51371 6.21355 8.51371L5.86593 8.87311L6.21354 8.51371ZM7.48146 12.1332C7.47988 12.4815 7.39827 12.6354 7.21971 12.8424C6.48848 13.6899 4.77648 14.6633 3.76928 15.2033C1.28974 16.5325 0.424907 16.6012 0.136328 17.0448C-0.0743373 17.3686 0.022092 17.8922 0.021634 19.2518C0.0210487 20.8953 0.0937921 20.8941 1.58322 20.8683C1.79021 20.8647 2.02457 20.8607 2.2899 20.8605C2.5213 20.8603 2.75271 20.8601 2.98412 20.8599L7.48146 12.1332Z" fill="#83C150" stroke="#83C150"/>
<path d="M20.345 12.3685L20.3449 12.3685C19.4478 12.469 18.8792 11.8285 18.7843 11.1662C18.737 10.8367 18.7993 10.477 19.0047 10.1735C19.2157 9.86194 19.5534 9.64563 19.9843 9.57359L20.345 12.3685ZM20.345 12.3685C21.0513 12.2894 21.6748 11.5722 21.5534 10.7671C21.4502 10.0824 20.8033 9.43666 19.9843 9.57358L20.345 12.3685ZM17.219 15.2558L17.4767 15.2998C17.6952 15.3371 17.899 15.4039 18.0639 15.4579C18.1068 15.4719 18.147 15.4851 18.1842 15.4967C18.3759 15.5564 18.5638 15.6029 18.8137 15.6103C20.1296 15.6495 21.1291 15.178 21.8643 14.1581L21.8643 14.1581C23.0001 12.5826 22.6138 10.1032 20.7127 9.0186L20.9603 8.58467L20.7127 9.0186C18.9519 8.01399 16.5937 8.82041 15.8337 10.7698L15.8337 10.7698C15.6174 11.3248 15.5685 11.7289 15.5868 12.1028C15.6015 12.4048 15.6573 12.6839 15.728 13.0372C15.7517 13.1558 15.7771 13.2829 15.8032 13.422L15.8517 13.6802L15.6664 13.8666L11.1591 18.4017L11.1495 18.4113L11.1394 18.4205C10.804 18.723 9.98333 19.5722 9.24485 20.3363C8.83867 20.7566 8.45735 21.1512 8.19528 21.415L17.219 15.2558ZM17.219 15.2558L17.0358 15.4422M17.219 15.2558L17.0358 15.4422M17.0358 15.4422L15.5484 16.9561L17.0358 15.4422ZM10.3807 20.6732L10.3982 20.6544C10.5128 20.5317 10.6681 20.4745 10.7353 20.4505C10.8291 20.4169 10.9365 20.3885 11.0427 20.364C11.2565 20.3147 11.5167 20.2697 11.7609 20.2294C11.8215 20.2194 11.881 20.2096 11.9391 20.2002C12.1223 20.1702 12.2907 20.1427 12.4316 20.116C12.4645 20.1098 12.4943 20.1039 12.5213 20.0983C12.5307 20.0551 12.5407 20.0042 12.5511 19.9454C12.5926 19.7119 12.6323 19.4049 12.6705 19.0816C12.6861 18.9501 12.7016 18.8141 12.7168 18.6809C12.7379 18.4959 12.7584 18.3164 12.7775 18.1624C12.7941 18.0279 12.8108 17.9035 12.8275 17.8009C12.8416 17.7142 12.8625 17.5964 12.8969 17.5055L12.9714 17.3083L13.1647 17.224C13.316 17.158 13.4904 17.141 13.614 17.1343C13.7534 17.1267 13.9062 17.1295 14.0499 17.1354C14.2088 17.142 14.3421 17.1509 14.4587 17.1587C14.5826 17.1669 14.6877 17.174 14.7847 17.1756C14.7847 17.1756 14.7847 17.1756 14.7847 17.1756L10.3807 20.6732ZM10.3807 20.6732L10.3652 20.6936M10.3807 20.6732L10.3652 20.6936M10.3652 20.6936C10.2496 20.8459 10.1792 21.0579 10.133 21.2141C10.0804 21.392 10.0327 21.5977 9.98924 21.7933C9.97512 21.8569 9.96152 21.9191 9.94826 21.9797C9.91926 22.1124 9.89184 22.2379 9.86392 22.355C9.85882 22.3764 9.85384 22.3969 9.84899 22.4165L8.23432 22.485C8.19284 22.3854 8.14838 22.2845 8.10706 22.1908C8.08705 22.1454 8.06778 22.1016 8.04994 22.0605C7.99122 21.9253 7.94053 21.8035 7.90405 21.7002M10.3652 20.6936L7.90405 21.7002M7.90405 21.7002C7.93831 21.6662 7.97449 21.6312 8.01331 21.5936C8.06802 21.5407 8.12799 21.4827 8.19521 21.415L7.90405 21.7002Z" stroke="#83C150"/>
<path d="M16.4798 20.3594H16.4799C16.7523 20.3595 17.026 20.3592 17.3002 20.3589C17.7666 20.3583 18.2345 20.3578 18.7006 20.3597L18.7006 20.3597C18.9197 20.3607 19.0604 20.3491 19.1533 20.3289C19.2119 20.3161 19.2354 20.3032 19.2421 20.2987C19.2467 20.2921 19.2613 20.2662 19.2753 20.1993C19.296 20.1006 19.3073 19.953 19.3058 19.7261C19.3028 19.2654 19.3034 18.801 19.304 18.339C19.3042 18.2205 19.3043 18.1022 19.3044 17.9841C18.8887 18.0052 18.5019 17.9963 17.9926 17.8984L16.4798 20.3594ZM16.4798 20.3594C16.2941 20.3592 16.0672 20.3645 15.8347 20.37C15.6754 20.3737 15.5135 20.3775 15.3603 20.3796C15.183 20.3821 15.0134 20.3825 14.8576 20.3794M16.4798 20.3594L14.8576 20.3794M14.8576 20.3794L14.9726 19.5501C15.001 19.5508 15.03 19.5516 15.0599 19.5524C15.1531 19.555 15.2547 19.5579 15.3718 19.558C15.6653 19.5581 16.0323 19.5364 16.3791 19.3574L14.8576 20.3794ZM17.8694 17.9658L17.8693 17.9659C17.7614 18.0803 17.663 18.1788 17.5655 18.2766C17.5186 18.3236 17.4719 18.3704 17.4243 18.4187L17.8694 17.9658ZM17.8694 17.9658C17.8964 17.9372 17.9198 17.9111 17.9394 17.8888M17.8694 17.9658L17.9394 17.8888M17.9394 17.8888C17.955 17.8914 17.9726 17.8946 17.9925 17.8984L17.9394 17.8888ZM16.9924 18.8712C16.8285 19.0349 16.6079 19.2393 16.3791 19.3574L16.9924 18.8712ZM16.9924 18.8712C17.0802 18.7836 17.1639 18.6948 17.2371 18.6166M16.9924 18.8712L17.2371 18.6166M17.2371 18.6166C17.25 18.6029 17.2624 18.5897 17.2744 18.5768M17.2371 18.6166L17.2744 18.5768M17.2744 18.5768C17.3332 18.514 17.382 18.4618 17.4243 18.4188L17.2744 18.5768ZM19.2443 20.297C19.2443 20.297 19.2439 20.2975 19.2427 20.2983C19.2436 20.2974 19.2442 20.297 19.2443 20.297ZM18.0084 17.8113C18.0084 17.8113 18.0079 17.8117 18.007 17.8126C18.008 17.8117 18.0084 17.8112 18.0084 17.8113Z" fill="#83C150" stroke="#83C150"/>
</svg>
