<svg width="30" height="30" viewBox="0 0 30 30" fill="none" xmlns="http://www.w3.org/2000/svg">
<path fill-rule="evenodd" clip-rule="evenodd" d="M14.731 28.9891H14.725C12.3 28.9883 9.91723 28.3798 7.8009 27.2255L0.119873 29.2404L2.17545 21.7321C0.907468 19.5347 0.240265 17.0422 0.241352 14.4884C0.244531 6.49958 6.74446 0 14.7309 0C18.6069 0.00167287 22.2449 1.51062 24.9805 4.24941C27.7161 6.98806 29.2218 10.6284 29.2203 14.4999C29.2171 22.4869 22.7197 28.9858 14.731 28.9891ZM8.1569 24.6025L8.59666 24.8635C10.4457 25.9607 12.5652 26.5413 14.7262 26.5422H14.7311C21.3689 26.5422 26.7713 21.1396 26.7739 14.4991C26.7752 11.2812 25.5237 8.25549 23.25 5.97911C20.9763 3.70273 17.9525 2.44849 14.7359 2.44737C8.09299 2.44737 2.69048 7.8494 2.68784 14.4894C2.68691 16.7649 3.32361 18.9811 4.52913 20.8985L4.81547 21.3541L3.59887 25.7982L8.1569 24.6025ZM21.5347 17.6193C21.7872 17.7413 21.9578 17.8237 22.0306 17.9453C22.121 18.0962 22.121 18.8211 21.8195 19.6669C21.5177 20.5126 20.0713 21.2844 19.3757 21.3883C18.752 21.4816 17.9627 21.5205 17.0954 21.2449C16.5696 21.078 15.8953 20.8553 15.0315 20.4822C11.6374 19.0167 9.34374 15.7271 8.91025 15.1054C8.87988 15.0618 8.85864 15.0314 8.84679 15.0156L8.84387 15.0117C8.65228 14.756 7.36849 13.0431 7.36849 11.2704C7.36849 9.60274 8.18767 8.72864 8.56473 8.32629C8.59057 8.29872 8.61433 8.27337 8.63561 8.25013C8.96745 7.88767 9.3597 7.79705 9.60104 7.79705C9.84237 7.79705 10.084 7.79928 10.2949 7.80988C10.321 7.81118 10.348 7.81103 10.376 7.81086C10.587 7.80963 10.85 7.80808 11.1095 8.43136C11.2093 8.67122 11.3554 9.02682 11.5094 9.40187C11.821 10.1603 12.1652 10.9983 12.2257 11.1195C12.3163 11.3008 12.3766 11.5121 12.2559 11.7538C12.2378 11.7901 12.221 11.8243 12.205 11.857C12.1144 12.042 12.0477 12.1781 11.8939 12.3578C11.8334 12.4284 11.7709 12.5045 11.7084 12.5807C11.5838 12.7323 11.4593 12.884 11.3508 12.9921C11.1696 13.1726 10.9809 13.3685 11.1921 13.7309C11.4033 14.0934 12.1299 15.2789 13.2061 16.2389C14.3631 17.2709 15.3686 17.707 15.8783 17.9281C15.9778 17.9713 16.0585 18.0063 16.1176 18.0359C16.4795 18.2172 16.6907 18.1868 16.9019 17.9453C17.1131 17.7036 17.8069 16.8881 18.0483 16.5257C18.2896 16.1634 18.531 16.2237 18.8628 16.3445C19.1947 16.4654 20.9747 17.3412 21.3367 17.5224C21.4074 17.5577 21.4735 17.5897 21.5347 17.6193Z" fill="white"/>
</svg>
