<svg width="22" height="21" viewBox="0 0 22 21" fill="none" xmlns="http://www.w3.org/2000/svg">
<path d="M10.6427 3.44472L11 3.80986L11.3573 3.44472L12.2969 2.48472C13.3011 1.45853 14.6608 0.875 16.089 0.875C17.515 0.875 18.8683 1.45637 19.8693 2.55221L19.8751 2.55856L19.8811 2.56472C22.0396 4.77037 22.0396 8.29964 19.8811 10.5053L19.8796 10.5068L11 19.657L2.12039 10.5068L2.11891 10.5053C-0.0396379 8.29964 -0.039638 4.77037 2.11891 2.56472L2.19721 2.48472C4.27048 0.366211 7.70128 0.365981 9.77557 2.55862L9.77552 2.55866L9.78144 2.56472L10.6427 3.44472Z" stroke="#007ABE"/>
</svg>
