<svg width="35" height="35" viewBox="0 0 35 35" fill="none" xmlns="http://www.w3.org/2000/svg">
<path fill-rule="evenodd" clip-rule="evenodd" d="M26.2468 22.9324C26.2468 24.3568 26.1414 25.3763 25.2893 26.5696C24.8245 27.2205 24.6978 27.3521 24.0712 27.8319C22.2407 29.2334 19.5059 29.1904 17.7116 27.7395C15.1462 25.6652 14.9427 21.8406 17.1938 19.5233C19.4164 17.2353 23.0709 17.386 25.1496 20.0242C25.6123 20.6113 26.2468 21.9053 26.2468 22.9324ZM3.05423 9.59071C3.34281 9.65992 4.57717 10.2483 4.93168 10.4083C5.20801 10.533 6.67805 11.2133 6.86283 11.2292C6.86283 11.9314 6.86283 12.6335 6.86283 13.3358C6.86283 14.0289 6.70474 14.9157 7.37443 14.9157C7.98634 14.9157 7.88608 14.2514 7.88605 13.6283C7.88598 13.0042 7.88603 12.38 7.88603 11.7558C8.39654 11.8783 11.4086 13.3698 11.6946 13.3943V23.5761L4.1537 20.2207C3.77854 20.049 3.39183 19.8979 3.05425 19.714V9.59071H3.05423ZM12.263 12.5165L9.49675 11.3265C9.25687 11.2111 8.72321 11.016 8.62501 10.8781L16.091 7.5626C16.3661 7.43673 16.5676 7.33286 16.8434 7.21903C17.116 7.10653 17.1074 7.14882 17.5874 7.38664L20.6192 8.71295C20.4454 8.95709 17.0229 10.3676 16.4696 10.644C16.154 10.8016 15.7567 10.9693 15.4382 11.1037L12.2631 12.5165H12.263ZM3.85006 8.83L12.0286 5.07126C12.302 4.95436 12.2058 4.96998 12.7552 5.22197L15.0107 6.23563C15.2471 6.34943 15.5399 6.48848 15.7874 6.54786C15.776 6.55605 15.7568 6.55172 15.7512 6.56908L15.6396 6.62981C15.5588 6.6709 15.5115 6.69222 15.4469 6.72405C15.3229 6.78519 15.2345 6.81902 15.0895 6.88278L7.64288 10.2199C7.3574 10.3524 7.40537 10.4116 6.88185 10.1563C6.64727 10.0419 4.06985 8.84884 3.85004 8.83002L3.85006 8.83ZM2.03103 8.65442V20.0651C2.03103 20.5092 2.55234 20.6139 3.07332 20.8647C3.52301 21.0811 3.93218 21.2339 4.38073 21.4499C4.83042 21.6663 5.2396 21.8191 5.68817 22.035C6.89767 22.6172 8.40725 23.2114 9.61043 23.7905C10.0601 24.007 10.4693 24.1598 10.9178 24.3757C11.1474 24.4862 12.0708 24.922 12.263 24.922C12.3287 24.922 14.4686 23.9678 14.6505 23.8687C14.6505 24.6185 15.0299 25.7547 15.2745 26.2692C15.7141 27.1942 16.2321 27.7664 16.9388 28.418L17.8142 29.0383C19.5913 30.0341 21.7761 30.2451 23.6131 29.2914C24.222 28.9752 25.158 28.3904 25.5888 27.8142C25.6723 27.7024 25.6913 27.6942 25.7777 27.5991C26.8142 26.458 27.2699 24.7945 27.2699 23.1665C27.2699 21.8824 26.6604 20.2106 25.8342 19.261C25.3927 18.7534 25.6237 18.9459 25.0706 18.4671C22.8504 16.5455 19.8037 16.367 17.4243 18.0052C16.5278 18.6224 15.8822 19.3665 15.3511 20.3769C14.8134 21.3999 14.6893 22.6317 14.6505 22.6984C14.5748 22.8283 12.8999 23.5606 12.7178 23.5762V13.4528L19.2138 10.5432C19.4862 10.423 21.1802 9.61086 21.415 9.59076C21.415 10.0427 21.3294 14.4079 21.484 14.7277C21.7371 15.2513 22.4382 15.033 22.4382 14.4476V8.77154C22.4382 8.29357 21.879 8.18016 21.3992 7.96851L14.9022 5.05994C11.3787 3.54109 13.0435 3.57153 9.59941 5.03483C9.18532 5.21077 8.74682 5.42739 8.33268 5.60333C7.88501 5.79355 7.44691 6.0109 7.02546 6.18872C6.14819 6.55886 5.33454 6.9612 4.45096 7.34207L2.54317 8.18696C2.36552 8.2669 2.03101 8.40534 2.03101 8.65452L2.03103 8.65442Z" fill="#83C150"/>
<path fill-rule="evenodd" clip-rule="evenodd" d="M19.9939 24.6294C19.5752 24.3408 18.5002 22.8739 18.0612 22.8739C17.7802 22.8739 17.5496 23.1113 17.5496 23.4005C17.5496 23.715 17.8712 23.9366 18.047 24.1174C18.3211 24.3995 19.6734 25.9168 19.937 25.9168C20.2838 25.9168 20.4195 25.6845 20.605 25.4926L23.9019 22.0986C24.0739 21.9217 24.3709 21.7217 24.3709 21.411C24.3709 21.1217 24.1403 20.8843 23.8593 20.8843C23.5814 20.8843 23.4575 21.091 23.3049 21.2499L19.9939 24.6294V24.6294Z" fill="#83C150"/>
</svg>
